<?xml version="1.0" encoding="UTF-8"?>
<svg width="50px" height="50px" viewBox="0 0 50 50" version="1.1" xmlns="http://www.w3.org/2000/svg" xmlns:xlink="http://www.w3.org/1999/xlink">
    <!-- Generator: sketchtool 51.1 (57501) - http://www.bohemiancoding.com/sketch -->
    <title>45E533AC-A9C1-4E2C-BB57-8D1555FE0191</title>
    <desc>Created with sketchtool.</desc>
    <defs>
        <polygon id="path-1" points="0 0.613988672 49.3864875 0.613988672 49.3864875 50 0 50"></polygon>
        <radialGradient cx="50%" cy="50%" fx="50%" fy="50%" r="50%" id="radialGradient-3">
            <stop stop-color="#F50038" offset="0%"></stop>
            <stop stop-color="#FFD800" offset="100%"></stop>
        </radialGradient>
    </defs>
    <g id="UI" stroke="none" stroke-width="1" fill="none" fill-rule="evenodd">
        <g id="Mood_how_I_feel_1" transform="translate(-557.000000, -258.000000)">
            <g id="Group" transform="translate(512.000000, 238.000000)">
                <g id="awesome">
                    <g transform="translate(45.000000, 20.000000)">
                        <g id="Group-3-Copy">
                            <mask id="mask-2" fill="white">
                                <use xlink:href="#path-1"></use>
                            </mask>
                            <g id="Clip-2"></g>
                            <path d="M49.377619,25.9609524 C49.7395238,12.327619 38.98,0.983571429 25.3466667,0.622857143 C11.7133333,0.260952381 0.369285714,11.0204762 0.00857142857,24.652619 C-0.352142857,38.2859524 10.407381,49.63 24.0395238,49.9919048 C37.6728571,50.3514286 49.0169048,39.5930952 49.377619,25.9609524" id="Fill-1" fill="#FFD800" mask="url(#mask-2)"></path>
                        </g>
                        <path d="M6.67289769,23.3030298 C6.40980245,33.268506 14.5109929,41.5673155 24.7693263,41.8387441 C35.0276596,42.1101726 43.556231,34.2518393 43.8205167,24.2863631 C43.8490882,23.193506 43.7728977,22.1232679 43.608612,21.0792203 C38.131231,19.4827917 32.1645644,18.5256488 25.9026596,18.3589822 C19.2300406,18.1827917 12.8443263,18.9196964 6.99313579,20.4042203 C6.81099293,21.3458869 6.70027865,22.3137441 6.67289769,23.3030298 Z" id="Fill-4-Copy" fill="#4A4A4A"></path>
                        <path d="M25.5666667,30.0090728 C19.752381,29.8543109 14.7921997,31.4388259 10.4421997,34.6328735 C13.7267235,38.9662069 18.5142857,42.0876443 24.4761905,42.2447871 C30.7702381,42.4126443 36.4095238,39.5138347 39.8928571,34.949549 C35.877381,31.9721681 30.9428571,30.1507395 25.5666667,30.0090728 Z" id="Fill-6-Copy" fill="#F50038"></path>
                        <path d="M17.8757218,10.1209974 C17.8757218,12.0292651 16.4855643,13.5753281 14.7709974,13.5753281 C13.0564304,13.5753281 11.6666667,12.0292651 11.6666667,10.1209974 C11.6666667,8.21312336 13.0564304,6.66666667 14.7709974,6.66666667 C16.4855643,6.66666667 17.8757218,8.21312336 17.8757218,10.1209974" id="Fill-4-Copy-4" fill="#4A4A4A"></path>
                        <path d="M9.38279619,7.46665014 C9.24972532,7.46665014 9.11429225,7.44105959 8.98318989,7.38672888 C8.44775682,7.16625644 8.1918513,6.55326431 8.41271745,6.01704384 C10.4162608,1.15090211 14.6890954,1.30720132 16.6694104,2.07058715 C17.2099615,2.27885487 17.4796466,2.88633518 17.2713789,3.42688636 C17.0623237,3.96743754 16.4564182,4.23790998 15.9142922,4.02885487 C15.5280718,3.88515408 12.0394891,2.72137455 10.3536623,6.81665014 C10.1867332,7.22137455 9.79539461,7.46665014 9.38279619,7.46665014" id="Fill-6-Copy-3" fill="#4A4A4A"></path>
                        <path d="M31.6666667,10.1209974 C31.6666667,12.0292651 33.0564304,13.5753281 34.7713911,13.5753281 C36.4855643,13.5753281 37.8757218,12.0292651 37.8757218,10.1209974 C37.8757218,8.21312336 36.4855643,6.66666667 34.7713911,6.66666667 C33.0564304,6.66666667 31.6666667,8.21312336 31.6666667,10.1209974" id="Fill-8-Copy-2" fill="#4A4A4A"></path>
                        <path d="M39.6256712,7.46665014 C39.7591357,7.46665014 39.8945688,7.44105959 40.0252775,7.38672888 C40.5607105,7.16625644 40.816616,6.55326431 40.5961436,6.01704384 C38.5922066,1.15090211 34.319372,1.30720132 32.339057,2.07058715 C31.7981121,2.27885487 31.5288208,2.88633518 31.7370885,3.42688636 C31.9457499,3.96743754 32.5520491,4.23790998 33.0941751,4.02885487 C33.4807893,3.88515408 36.9689783,2.72137455 38.654805,6.81665014 C38.8217342,7.22137455 39.2130727,7.46665014 39.6256712,7.46665014" id="Fill-10-Copy-2" fill="#4A4A4A"></path>
                        <circle id="Oval-3" fill-opacity="0.15" fill="url(#radialGradient-3)" fill-rule="nonzero" cx="42.5" cy="17.5" r="4.16666667"></circle>
                        <circle id="Oval-3-Copy" fill-opacity="0.15" fill="url(#radialGradient-3)" fill-rule="nonzero" cx="7.5" cy="17.5" r="4.16666667"></circle>
                    </g>
                </g>
            </g>
        </g>
    </g>
</svg>