<svg xmlns="http://www.w3.org/2000/svg" width="20" height="15" viewBox="0 0 20 15">
    <path fill="#FFD800" fill-rule="evenodd" d="M8.715 14.256h-1.01c-1.925-.287-3.662-1.331-5.648-1.388-.55-.015-.919-.39-1.171-.855C.01 10.403-.21 8.696.195 6.917c.152-.67.462-1.329 1.07-1.658 2.098-1.135 4.043-2.495 5.973-3.884C7.841.941 8.498.583 9.124.18c.464-.299.853-.212 1.22.173.573.6.623 1.348.168 2.193-.262.486-.72.815-1.138 1.429 1.77-.066 3.377.208 5.004.102 1.488-.098 2.978-.149 4.46.075.76.115 1.148.58 1.162 1.325.013.737-.364 1.206-1.127 1.35-.329.061-.668.071-1.004.084-1.464.053-2.929.105-4.394.144-.472.013-.683.14-.453.65.302.673.171 1.32-.223 1.918-.18.271-.291.528-.214.871.166.73-.066 1.325-.684 1.761a1.047 1.047 0 0 0-.391.505c-.199.542-.642.812-1.13 1.048-.529.256-1.119.268-1.665.449"/>
</svg>
