<svg xmlns="http://www.w3.org/2000/svg" width="20" height="20" viewBox="0 0 20 20">
    <g fill="none" fill-rule="evenodd">
        <circle cx="10" cy="10" r="10" fill="#005FFF" fill-rule="nonzero"/>
        <g fill="#FFF">
            <path d="M6.233 15.266l-1.572-.04a.68.68 0 0 1-.66-.697l.127-4.868A.68.68 0 0 1 4.823 9l1.573.04c.373.01.67.323.661.697l-.128 4.867a.68.68 0 0 1-.696.661M14.601 9.918a.962.962 0 0 0 .61-.867.962.962 0 0 0-.934-.984l-2.725-.071c.056-.189.546-.992.7-1.282.131-.25.176-.545.182-.827a2.57 2.57 0 0 0-.194-1.04c-.187-.45-.502-.923-1.06-.837-.495.078-.832.607-.672 1.086 0 0 .108.355.084.483-.032.162-.266.424-.55.77-.57.69-1.314 1.615-1.515 1.956-.233.393-.34.698-.384 1.045a.674.674 0 0 0-.037.205L8 13.605a.68.68 0 0 0 .661.695l4.787.137c.488.013.899-.377.911-.866a.884.884 0 0 0-.164-.535.886.886 0 0 0 .38-1.403.96.96 0 0 0 .547-.839.963.963 0 0 0-.52-.876"/>
        </g>
    </g>
</svg>
