<?xml version="1.0" encoding="UTF-8"?>
<svg width="20px" height="20px" viewBox="0 0 20 20" version="1.1" xmlns="http://www.w3.org/2000/svg" xmlns:xlink="http://www.w3.org/1999/xlink">
    <!-- Generator: sketchtool 51.1 (57501) - http://www.bohemiancoding.com/sketch -->
    <title>3D2C2B39-8AEA-4CBB-B38F-CC429BD3D4F9</title>
    <desc>Created with sketchtool.</desc>
    <defs></defs>
    <g id="UI" stroke="none" stroke-width="1" fill="none" fill-rule="evenodd">
        <g id="Mood_kudos_overview" transform="translate(-783.000000, -193.000000)">
            <g id="kudos-copy" transform="translate(783.000000, 193.000000)">
                <circle id="Oval-6" fill="#005FFF" fill-rule="nonzero" cx="10" cy="10" r="10"></circle>
                <g id="Group-5" transform="translate(4.000000, 4.000000)" fill="#FFFFFF">
                    <path d="M2.23342655,11.2661538 L0.661153819,11.2252447 C0.287972001,11.2152447 -0.00975527207,10.9020629 0.000244727929,10.5288811 L0.127517455,5.66069928 C0.137517455,5.287972 0.450244728,4.99024473 0.823426546,5.00024473 L2.39569927,5.04115382 C2.76933564,5.05115382 3.06660836,5.36433564 3.05706291,5.73751746 L2.92933564,10.6052447 C2.91979018,10.9788811 2.60660836,11.2756993 2.23342655,11.2661538" id="Fill-4"></path>
                    <path d="M10.6011542,5.91810358 C10.9488815,5.7812854 11.1997905,5.44583086 11.2102451,5.05083086 C11.2238815,4.52355813 10.8038815,4.08083086 10.2770633,4.06719449 L7.55160872,3.99583086 C7.60751781,3.80719449 8.09751781,3.00446722 8.25115418,2.71355813 C8.38342691,2.46355813 8.42751781,2.16901268 8.43388145,1.88719449 C8.44251781,1.53219449 8.37569963,1.17446722 8.23979054,0.846285403 C8.05297236,0.397194494 7.73797236,-0.0764418699 7.18024509,0.0103763119 C6.68479054,0.0876490392 6.34842691,0.617194494 6.50842691,1.09583086 C6.50842691,1.09583086 6.61569963,1.45083086 6.59160872,1.57855813 C6.56024509,1.7412854 6.32615418,2.00310358 6.04115418,2.34901268 C5.47251781,3.03992177 4.72797236,3.96355813 4.52660872,4.30492177 C4.294336,4.69764904 4.18660872,5.00264904 4.14342691,5.35037631 C4.12069963,5.41446722 4.10797236,5.48310358 4.10569963,5.55492177 L4.00024509,9.60446722 C3.99024509,9.97764904 4.28751781,10.2908309 4.66115418,10.3003763 L9.44751781,10.4367399 C9.93615418,10.4499218 10.3466087,10.0603763 10.359336,9.5712854 C10.364336,9.37264904 10.3025178,9.18764904 10.1952451,9.0362854 C10.5288815,8.91492177 10.7729724,8.59946722 10.7825178,8.22446722 C10.7884269,8.00083086 10.7088815,7.79355813 10.5752451,7.63310358 C10.8897905,7.48219449 11.1120633,7.16537631 11.1220633,6.79446722 C11.1316087,6.41583086 10.9170633,6.08219449 10.6011542,5.91810358" id="Fill-6"></path>
                </g>
            </g>
        </g>
    </g>
</svg>