<?xml version="1.0" encoding="UTF-8"?>
<svg width="50px" height="50px" viewBox="0 0 50 50" version="1.1" xmlns="http://www.w3.org/2000/svg" xmlns:xlink="http://www.w3.org/1999/xlink">
    <!-- Generator: sketchtool 51.1 (57501) - http://www.bohemiancoding.com/sketch -->
    <title>977B1F9A-6DA4-46F9-A149-2115AD77CD38</title>
    <desc>Created with sketchtool.</desc>
    <defs>
        <polygon id="path-1" points="0 0.613988672 49.3864875 0.613988672 49.3864875 50 0 50"></polygon>
    </defs>
    <g id="UI" stroke="none" stroke-width="1" fill="none" fill-rule="evenodd">
        <g id="Mood_how_I_feel_1" transform="translate(-897.000000, -258.000000)">
            <g id="Group" transform="translate(512.000000, 238.000000)">
                <g id="meh" transform="translate(340.000000, 0.000000)">
                    <g transform="translate(45.000000, 20.000000)">
                        <g id="Group-3-Copy-2">
                            <mask id="mask-2" fill="white">
                                <use xlink:href="#path-1"></use>
                            </mask>
                            <g id="Clip-2"></g>
                            <path d="M49.377619,25.9609524 C49.7395238,12.327619 38.98,0.983571429 25.3466667,0.622857143 C11.7133333,0.260952381 0.369285714,11.0204762 0.00857142857,24.652619 C-0.352142857,38.2859524 10.407381,49.63 24.0395238,49.9919048 C37.6728571,50.3514286 49.0169048,39.5930952 49.377619,25.9609524" id="Fill-1" fill="#FFD800" mask="url(#mask-2)"></path>
                        </g>
                        <path d="M16.6666667,37.8333333 C16.0223345,37.8333333 15.5,37.3109989 15.5,36.6666667 C15.5,36.0223345 16.0223345,35.5 16.6666667,35.5 L33.8618978,35.5 C34.50623,35.5 35.0285645,36.0223345 35.0285645,36.6666667 C35.0285645,37.3109989 34.50623,37.8333333 33.8618978,37.8333333 L16.6666667,37.8333333 Z" id="Path-2-Copy" fill="#4A4A4A" fill-rule="nonzero"></path>
                        <path d="M17.8757218,23.4543307 C17.8757218,25.3625984 16.4855643,26.9086614 14.7709974,26.9086614 C13.0564304,26.9086614 11.6666667,25.3625984 11.6666667,23.4543307 C11.6666667,21.5464567 13.0564304,20 14.7709974,20 C16.4855643,20 17.8757218,21.5464567 17.8757218,23.4543307" id="Fill-4" fill="#4A4A4A"></path>
                        <path d="M9.9505734,20.1368416 C9.81750254,20.1368416 9.68206947,20.1112511 9.55096711,20.0569204 C9.01553403,19.8364479 8.75962852,19.2234558 8.98049466,18.6872353 C10.984038,13.8210936 15.2568726,13.9773928 17.2371876,14.7407786 C17.7777388,14.9490463 18.0474238,15.5565267 17.8391561,16.0970778 C17.630101,16.637629 17.0241955,16.9081015 16.4820695,16.6990463 C16.095849,16.5553456 12.6072663,15.391566 10.9214395,19.4868416 C10.7545104,19.891566 10.3631718,20.1368416 9.9505734,20.1368416" id="Fill-6" fill="#4A4A4A" transform="translate(13.405320, 17.236850) rotate(14.000000) translate(-13.405320, -17.236850) "></path>
                        <path d="M31.6666667,23.4543307 C31.6666667,25.3625984 33.0564304,26.9086614 34.7713911,26.9086614 C36.4855643,26.9086614 37.8757218,25.3625984 37.8757218,23.4543307 C37.8757218,21.5464567 36.4855643,20 34.7713911,20 C33.0564304,20 31.6666667,21.5464567 31.6666667,23.4543307" id="Fill-8" fill="#4A4A4A"></path>
                        <path d="M40.0238742,19.8022438 C40.1573387,19.8022438 40.2927718,19.7766532 40.4234805,19.7223225 C40.9589136,19.5018501 41.2148191,18.888858 40.9943466,18.3526375 C38.9904096,13.4864958 34.717575,13.642795 32.73726,14.4061808 C32.1963151,14.6144485 31.9270238,15.2219288 32.1352915,15.76248 C32.3439529,16.3030312 32.9502521,16.5735036 33.4923781,16.3644485 C33.8789923,16.2207477 37.3671813,15.0569682 39.053008,19.1522438 C39.2199372,19.5569682 39.6112758,19.8022438 40.0238742,19.8022438" id="Fill-10" fill="#4A4A4A" transform="translate(36.569188, 16.902252) rotate(-9.000000) translate(-36.569188, -16.902252) "></path>
                    </g>
                </g>
            </g>
        </g>
    </g>
</svg>