<?xml version="1.0" encoding="UTF-8"?>
<svg width="20px" height="15px" viewBox="0 0 20 15" version="1.1" xmlns="http://www.w3.org/2000/svg" xmlns:xlink="http://www.w3.org/1999/xlink">
    <!-- Generator: sketchtool 51.2 (57519) - http://www.bohemiancoding.com/sketch -->
    <title>57364F68-D836-4BD8-8E36-CA0B238D03E3</title>
    <desc>Created with sketchtool.</desc>
    <defs></defs>
    <g id="UI-desktop" stroke="none" stroke-width="1" fill="none" fill-rule="evenodd">
        <g id="Mood_dashboard_HR_thoughts_1" transform="translate(-83.000000, -366.000000)" fill-rule="nonzero">
            <g id="messages" transform="translate(83.000000, 366.000000)">
                <path d="M14,12 L2,12 C0.8954305,12 1.3527075e-16,11.1045695 0,10 L0,2 C-1.3527075e-16,0.8954305 0.8954305,2.02906125e-16 2,0 L18,0 C19.1045695,-2.02906125e-16 20,0.8954305 20,2 L20,10 C20,11.1045695 19.1045695,12 18,12 L17,12 L17,14.0343146 C17,14.2552285 16.8209139,14.4343146 16.6,14.4343146 C16.4939134,14.4343146 16.3921718,14.3921718 16.3171573,14.3171573 L14,12 Z" id="Combined-Shape" fill="#005FFF"></path>
                <rect id="Rectangle-8" fill="#FFFFFF" x="3" y="4" width="14" height="1" rx="0.5"></rect>
                <rect id="Rectangle-8" fill="#FFFFFF" x="3" y="7" width="14" height="1" rx="0.5"></rect>
            </g>
        </g>
    </g>
</svg>