<?xml version="1.0" encoding="UTF-8"?>
<svg width="160px" height="62px" viewBox="0 0 160 62" version="1.1" xmlns="http://www.w3.org/2000/svg" xmlns:xlink="http://www.w3.org/1999/xlink">
    <!-- Generator: sketchtool 51.1 (57501) - http://www.bohemiancoding.com/sketch -->
    <title>6C241862-BAD3-4D3A-98E4-9CA4706FA2D2</title>
    <desc>Created with sketchtool.</desc>
    <defs></defs>
    <g id="UI" stroke="none" stroke-width="1" fill="none" fill-rule="evenodd">
        <g id="Mood_Login_1" transform="translate(-672.000000, -238.000000)">
            <g id="Group-11" transform="translate(672.000000, 238.000000)">
                <path d="M72.8762884,31.4123919 C72.1105952,32.68278 71.0781368,33.706366 69.8074529,34.4547579 C68.5324806,35.2059593 67.1411312,35.5870314 65.6721479,35.5870314 C64.1363253,35.5870314 62.7114085,35.2059593 61.4371756,34.45461 C60.1639778,33.705183 59.1466026,32.6789353 58.4137375,31.4047024 C57.6805767,30.1304695 57.3086728,28.7235933 57.3086728,27.2235564 C57.3086728,25.7226322 57.6808725,24.3235933 58.4152163,23.0650351 C59.1474898,21.8094344 60.1642736,20.7923549 61.4371756,20.0420407 C62.7130351,19.2908392 64.1378041,18.9097671 65.6721479,18.9097671 C67.1396525,18.9097671 68.530854,19.2906913 69.807305,20.0420407 C71.0776932,20.7913198 72.1097079,21.8055896 72.8748096,23.0571978 C73.6452348,24.3185656 74.0357708,25.720414 74.0357708,27.2235564 C74.0357708,28.7261072 73.6456784,30.1352015 72.8762884,31.4123919 M74.7399482,12.2855896 C72.0147726,10.6894344 69.0142551,9.88026617 65.8216488,9.88026617 C62.6290425,9.88026617 59.6371017,10.6892865 56.9290795,12.2849982 C54.2176562,13.8829279 52.0325176,16.0679187 50.4348835,18.7794898 C48.839024,21.4873641 48.0300037,24.4791571 48.0300037,27.6719113 C48.0300037,30.8646654 48.839024,33.8564584 50.4347357,36.5643327 C52.0325176,39.2759039 54.2176562,41.4608946 56.9290795,43.0588244 C59.6371017,44.654536 62.6290425,45.4635564 65.8216488,45.4635564 C69.0142551,45.4635564 72.0147726,44.6543882 74.7400961,43.0582329 C77.4677856,41.4601553 79.6607616,39.2754603 81.2583956,36.5643327 C82.8541072,33.8564584 83.6632754,30.8646654 83.6632754,27.6719113 C83.6632754,24.4791571 82.8541072,21.4873641 81.2583956,18.7794898 C79.6607616,16.0683623 77.4677856,13.8836673 74.7399482,12.2855896" id="Fill-1" fill="#005FFF"></path>
                <path d="M114.697494,24.5463364 C113.755091,26.1101072 112.484259,27.3699963 110.919749,28.2914011 C109.342965,29.2204954 107.621708,29.6916229 105.804185,29.6916229 C103.909323,29.6916229 102.149323,29.2204954 100.573279,28.2911054 C99.0021146,27.3662994 97.7462181,26.0994603 96.8412274,24.5257819 C95.9353494,22.9516599 95.4759039,21.2145804 95.4759039,19.3631941 C95.4759039,17.5097375 95.9365323,15.7804954 96.8447763,14.2232311 C97.7493235,12.6729168 99.0038891,11.4176118 100.573575,10.4928059 C102.151394,9.56371165 103.911246,9.09243623 105.804185,9.09243623 C107.619786,9.09243623 109.340747,9.56356377 110.919453,10.4925102 C112.482484,11.4140628 113.751837,12.6622699 114.693649,14.2025287 C115.648473,15.7660037 116.132614,17.5023438 116.132614,19.3631941 C116.132614,21.2219741 115.649804,22.9658558 114.697494,24.5463364 M115.939638,2.68666913 C112.895941,0.904044362 109.543926,8.87245841e-05 105.976754,8.87245841e-05 C102.410174,8.87245841e-05 99.0689538,0.903452865 96.0453678,2.68519039 C93.0123179,4.47254713 90.5682514,6.9164658 88.7807468,9.94966359 C86.9991571,12.9731017 86.095793,16.3146174 86.095793,19.8811978 C86.095793,23.4477782 86.9991571,26.7892939 88.7807468,29.812732 C90.5682514,32.8457819 93.0123179,35.2898484 96.0453678,37.0770573 C99.068658,38.8587948 102.410026,39.762159 105.976754,39.762159 C109.544074,39.762159 112.896089,38.8583512 115.939786,37.0755786 C118.990876,35.2882218 121.443815,32.8445989 123.23058,29.812732 C125.01217,26.7892939 125.915534,23.4477782 125.915534,19.8811978 C125.915534,16.3146174 125.01217,12.9731017 123.230433,9.94966359 C121.443815,6.9176488 118.990876,4.47417375 115.939638,2.68666913" id="Fill-3" fill="#005FFF"></path>
                <path d="M142.258869,33.0323697 C143.259091,33.2164732 144.243933,33.1005397 145.213841,32.6835342 C146.183601,32.2671201 147.026928,31.5999113 147.744562,30.6819076 C148.461309,29.7644954 148.93214,28.6996525 149.155579,27.4870832 C149.373102,26.3051238 149.316318,25.1666396 148.985523,24.0716303 C148.653989,22.9764732 148.111586,22.0540333 147.356688,21.3040148 C146.601789,20.5538484 145.724155,20.0868614 144.724081,19.90261 L140.496207,19.1239039 C140.28386,19.0848651 140.095911,19.1287837 139.931623,19.2549205 C139.767187,19.3817967 139.662787,19.5660481 139.618129,19.8082662 L137.49983,31.3097819 C137.455172,31.5527394 137.487113,31.7619815 137.595652,31.9385434 C137.704044,32.115549 137.864192,32.2229057 138.07654,32.2620924 L142.258869,33.0323697 Z M126.461604,38.1603549 L131.585745,10.3383956 C131.686152,9.79303512 131.969479,9.35961553 132.436318,9.03798891 C132.90227,8.71695379 133.408887,8.60604806 133.954396,8.70660259 L146.228702,10.9671571 C149.107667,11.4974344 151.679793,12.7159187 153.945671,14.6211312 C156.210662,16.5269353 157.86922,18.8382107 158.920311,21.5536266 C159.971105,24.2699298 160.234174,27.0526285 159.709516,29.9008355 C159.18471,32.7500776 157.939756,35.2549205 155.975394,37.4152163 C154.010292,39.5759556 151.622861,41.1419445 148.812067,42.1121479 C146.001124,43.0830906 143.155874,43.3029797 140.276909,42.7728503 L128.093545,40.5288577 C127.548037,40.4285989 127.114026,40.1451238 126.793139,39.6782847 C126.471364,39.2123327 126.361198,38.7057153 126.461604,38.1603549 Z" id="Fill-5" fill="#005FFF"></path>
                <path d="M106.667372,46.0668244 C105.134211,45.0022773 103.018869,45.3842366 101.95166,46.9193198 C98.7169094,51.5809094 94.7004954,54.3505952 90.3290351,54.9301146 C86.040976,55.53078 81.5552089,54.035475 77.3576488,50.6034603 C76.6212348,50.0013161 75.6582773,49.7369168 74.7158743,49.875475 L74.7157264,49.8756229 C73.8361701,50.0060481 73.0988688,50.4081183 72.5832311,51.0386543 C71.3922514,52.496695 71.6000148,54.5713715 73.0561331,55.7619076 C77.8342477,59.6677116 83.0372052,61.6836821 88.2621959,61.6836821 C89.2584251,61.6836821 90.2561331,61.6101885 91.2511793,61.4627579 L91.4030462,61.440281 C97.7063364,60.5060111 103.274543,56.789634 107.505819,50.6929242 C108.567704,49.1627209 108.199349,47.1304843 106.667372,46.0668244" id="Fill-7" fill="#FFD800"></path>
                <path d="M45.8082218,35.2221811 L42.2196081,9.70425139 L42.2082218,9.70735675 C42.2082218,9.70735675 41.5336192,4.97360444 36.6142847,3.60369686 C31.695098,2.2336414 28.7932126,5.74462107 28.7932126,5.74462107 L28.7902551,5.73338262 L21.3089982,16.3078743 L11.5865582,8.03445471 C10.4165767,7.38913124 7.46500555,6.19652495 4.02042144,8.10824399 C0.642232902,9.98284658 0.0757264325,13.1628835 1.47874307e-05,14.6006654 L3.73221442,41.1396673 C3.78219593,41.4954529 3.95949723,41.7891312 4.27343438,42.0371165 C4.5248207,42.2363031 4.79454344,42.3343438 5.09384104,42.3343438 C5.16053235,42.3343438 5.22885028,42.329464 5.29849908,42.3197043 L12.2210869,41.3462477 C12.602159,41.2925693 12.891549,41.1213309 13.1062625,40.8217375 C13.3251165,40.5154898 13.4048207,40.1770055 13.3498115,39.7855823 L10.4545804,19.5968946 L21.4210869,30.2238817 C21.6921405,30.5026248 22.0269279,30.7028466 22.4439335,30.8357856 C22.870403,30.9725693 23.2948022,31.0086506 23.7418262,30.9459519 C24.6506617,30.8178928 25.3268909,30.324732 25.8051165,29.4456192 L33.2967246,16.3699815 L36.1391645,36.5820333 C36.1922514,36.9595564 36.3788688,37.252939 36.7093678,37.4791867 C37.053915,37.7148983 37.4129538,37.8027357 37.8080739,37.7478743 L44.6793494,36.7815157 C45.0604214,36.7278373 45.3498115,36.556451 45.5640813,36.2574492 C45.5642292,36.2573013 45.5643771,36.2571534 45.564525,36.2568577 C45.7833789,35.95061 45.8630832,35.6121257 45.8082218,35.2221811" id="Fill-9" fill="#005FFF"></path>
            </g>
        </g>
    </g>
</svg>