<?xml version="1.0" encoding="UTF-8"?>
<svg width="50px" height="51px" viewBox="0 0 50 51" version="1.1" xmlns="http://www.w3.org/2000/svg" xmlns:xlink="http://www.w3.org/1999/xlink">
    <!-- Generator: sketchtool 51.1 (57501) - http://www.bohemiancoding.com/sketch -->
    <title>F9F997E0-99D1-43CB-A20D-4673E8BF1C13</title>
    <desc>Created with sketchtool.</desc>
    <defs></defs>
    <g id="UI" stroke="none" stroke-width="1" fill="none" fill-rule="evenodd">
        <g id="Mood_how_I_feel_1" transform="translate(-642.000000, -408.000000)">
            <g id="Group" transform="translate(512.000000, 238.000000)">
                <g id="not-good" transform="translate(85.000000, 150.000000)">
                    <g transform="translate(45.000000, 20.000000)">
                        <path d="M49.9066142,25.3472047 C49.9066142,39.1287008 38.7349606,50.300748 24.9534646,50.300748 C11.1719685,50.300748 -7.87401575e-05,39.1287008 -7.87401575e-05,25.3472047 C-7.87401575e-05,11.5657087 11.1719685,0.393661417 24.9534646,0.393661417 C38.7349606,0.393661417 49.9066142,11.5657087 49.9066142,25.3472047" id="Fill-1" fill="#FFD800"></path>
                        <path d="M17.8784252,26.1780315 C17.8784252,28.0862992 16.4882677,29.6323622 14.7737008,29.6323622 C13.0591339,29.6323622 11.6693701,28.0862992 11.6693701,26.1780315 C11.6693701,24.2701575 13.0591339,22.7237008 14.7737008,22.7237008 C16.4882677,22.7237008 17.8784252,24.2701575 17.8784252,26.1780315" id="Fill-4" fill="#4A4A4A"></path>
                        <path d="M9.96366142,22.6804724 C9.83059055,22.6804724 9.69515748,22.6548819 9.56405512,22.6005512 C9.02862205,22.3800787 8.77271654,21.7670866 8.99358268,21.2308661 C10.997126,16.3647244 15.2699606,16.5210236 17.2502756,17.2844094 C17.7908268,17.4926772 18.0605118,18.1001575 17.8522441,18.6407087 C17.643189,19.1812598 17.0372835,19.4517323 16.4951575,19.2426772 C16.108937,19.0989764 12.6203543,17.9351969 10.9345276,22.0304724 C10.7675984,22.4351969 10.3762598,22.6804724 9.96366142,22.6804724" id="Fill-6" fill="#4A4A4A"></path>
                        <path d="M32.1447244,26.1780315 C32.1447244,28.0862992 33.5344882,29.6323622 35.2494488,29.6323622 C36.963622,29.6323622 38.3537795,28.0862992 38.3537795,26.1780315 C38.3537795,24.2701575 36.963622,22.7237008 35.2494488,22.7237008 C33.5344882,22.7237008 32.1447244,24.2701575 32.1447244,26.1780315" id="Fill-8" fill="#4A4A4A"></path>
                        <path d="M40.0594882,22.6804724 C40.1929528,22.6804724 40.3283858,22.6548819 40.4590945,22.6005512 C40.9945276,22.3800787 41.2504331,21.7670866 41.0299606,21.2308661 C39.0260236,16.3647244 34.753189,16.5210236 32.772874,17.2844094 C32.2319291,17.4926772 31.9626378,18.1001575 32.1709055,18.6407087 C32.3795669,19.1812598 32.9858661,19.4517323 33.5279921,19.2426772 C33.9146063,19.0989764 37.4027953,17.9351969 39.088622,22.0304724 C39.2555512,22.4351969 39.6468898,22.6804724 40.0594882,22.6804724" id="Fill-10" fill="#4A4A4A"></path>
                        <path d="M30.7070079,39.6965354 C28.9932283,37.8126772 26.9979528,36.8087402 24.9381102,36.7925984 C22.8333858,36.760315 20.7613386,37.7843307 18.9554331,39.7079528 C18.5585827,40.13 17.8944094,40.1520472 17.4719685,39.7551969 C17.0491339,39.3583465 17.0282677,38.7343307 17.4251181,38.3114961 C19.6235433,35.9697638 22.2022835,34.7733071 24.8865354,34.7733071 L24.9546457,34.7733071 C27.6148819,34.7733071 30.1408661,35.995748 32.2593701,38.3233071 C32.6495276,38.7516535 32.6180315,39.395748 32.189685,39.7859055 C31.9881102,39.9689764 31.735748,40.0394488 31.4833858,40.0394488 C31.1979528,40.0394488 30.9140945,39.9240945 30.7070079,39.6965354 Z" id="Fill-12" fill="#4A4A4A"></path>
                    </g>
                </g>
            </g>
        </g>
    </g>
</svg>
