<?xml version="1.0" encoding="UTF-8"?>
<svg width="50px" height="50px" viewBox="0 0 50 50" version="1.1" xmlns="http://www.w3.org/2000/svg" xmlns:xlink="http://www.w3.org/1999/xlink">
    <!-- Generator: sketchtool 51.1 (57501) - http://www.bohemiancoding.com/sketch -->
    <title>D7AF167D-4C82-480B-B04C-CA63B8CAA7BD</title>
    <desc>Created with sketchtool.</desc>
    <defs>
        <polygon id="path-1" points="0 0.613988672 49.3864875 0.613988672 49.3864875 50 0 50"></polygon>
        <radialGradient cx="50%" cy="50%" fx="50%" fy="50%" r="50%" id="radialGradient-3">
            <stop stop-color="#F50038" offset="0%"></stop>
            <stop stop-color="#FFD800" offset="100%"></stop>
        </radialGradient>
    </defs>
    <g id="UI" stroke="none" stroke-width="1" fill="none" fill-rule="evenodd">
        <g id="Mood_how_I_feel_1" transform="translate(-727.000000, -258.000000)">
            <g id="Group" transform="translate(512.000000, 238.000000)">
                <g id="good" transform="translate(170.000000, 0.000000)">
                    <g transform="translate(45.000000, 20.000000)">
                        <g id="Group-11">
                            <g id="Group-3-Copy">
                                <mask id="mask-2" fill="white">
                                    <use xlink:href="#path-1"></use>
                                </mask>
                                <g id="Clip-2"></g>
                                <path d="M49.377619,25.9609524 C49.7395238,12.327619 38.98,0.983571429 25.3466667,0.622857143 C11.7133333,0.260952381 0.369285714,11.0204762 0.00857142857,24.652619 C-0.352142857,38.2859524 10.407381,49.63 24.0395238,49.9919048 C37.6728571,50.3514286 49.0169048,39.5930952 49.377619,25.9609524" id="Fill-1" fill="#FFD800" mask="url(#mask-2)"></path>
                            </g>
                            <path d="M15.7572414,37.3974585 C15.3536362,36.8951968 15.4336131,36.1608466 15.9358748,35.7572414 C16.4381365,35.3536362 17.1724867,35.4336131 17.5760919,35.9358748 C19.7535148,38.6455428 22.2591581,39.9610596 25.1635742,39.9610596 C28.0771253,39.9610596 30.6598607,38.6364668 32.9724093,35.9117353 C33.3893464,35.4204844 34.1255783,35.3602411 34.6168292,35.7771782 C35.1080801,36.1941153 35.1683233,36.9303471 34.7513863,37.421598 C32.0156492,40.644946 28.7995023,42.2943929 25.1635742,42.2943929 C21.5185111,42.2943929 18.3595495,40.63587 15.7572414,37.3974585 Z" id="Path-2" fill="#4A4A4A" fill-rule="nonzero"></path>
                            <path d="M17.8757218,21.787664 C17.8757218,23.6959318 16.4855643,25.2419948 14.7709974,25.2419948 C13.0564304,25.2419948 11.6666667,23.6959318 11.6666667,21.787664 C11.6666667,19.87979 13.0564304,18.3333333 14.7709974,18.3333333 C16.4855643,18.3333333 17.8757218,19.87979 17.8757218,21.787664" id="Fill-4-Copy-2" fill="#4A4A4A"></path>
                            <path d="M9.38279619,19.1333168 C9.24972532,19.1333168 9.11429225,19.1077263 8.98318989,19.0533955 C8.44775682,18.8329231 8.1918513,18.219931 8.41271745,17.6837105 C10.4162608,12.8175688 14.6890954,12.973868 16.6694104,13.7372538 C17.2099615,13.9455215 17.4796466,14.5530018 17.2713789,15.093553 C17.0623237,15.6341042 16.4564182,15.9045767 15.9142922,15.6955215 C15.5280718,15.5518207 12.0394891,14.3880412 10.3536623,18.4833168 C10.1867332,18.8880412 9.79539461,19.1333168 9.38279619,19.1333168" id="Fill-6-Copy-2" fill="#4A4A4A"></path>
                            <path d="M31.6666667,21.787664 C31.6666667,23.6959318 33.0564304,25.2419948 34.7713911,25.2419948 C36.4855643,25.2419948 37.8757218,23.6959318 37.8757218,21.787664 C37.8757218,19.87979 36.4855643,18.3333333 34.7713911,18.3333333 C33.0564304,18.3333333 31.6666667,19.87979 31.6666667,21.787664" id="Fill-8-Copy" fill="#4A4A4A"></path>
                            <path d="M39.6256712,19.1333168 C39.7591357,19.1333168 39.8945688,19.1077263 40.0252775,19.0533955 C40.5607105,18.8329231 40.816616,18.219931 40.5961436,17.6837105 C38.5922066,12.8175688 34.319372,12.973868 32.339057,13.7372538 C31.7981121,13.9455215 31.5288208,14.5530018 31.7370885,15.093553 C31.9457499,15.6341042 32.5520491,15.9045767 33.0941751,15.6955215 C33.4807893,15.5518207 36.9689783,14.3880412 38.654805,18.4833168 C38.8217342,18.8880412 39.2130727,19.1333168 39.6256712,19.1333168" id="Fill-10-Copy" fill="#4A4A4A"></path>
                        </g>
                        <circle id="Oval-3" fill-opacity="0.15" fill="url(#radialGradient-3)" fill-rule="nonzero" cx="42.5" cy="30.8333333" r="4.16666667"></circle>
                        <circle id="Oval-3-Copy" fill-opacity="0.15" fill="url(#radialGradient-3)" fill-rule="nonzero" cx="7.5" cy="30.8333333" r="4.16666667"></circle>
                    </g>
                </g>
            </g>
        </g>
    </g>
</svg>