<?xml version="1.0" encoding="UTF-8"?>
<svg width="10px" height="10px" viewBox="0 0 10 10" version="1.1" xmlns="http://www.w3.org/2000/svg" xmlns:xlink="http://www.w3.org/1999/xlink">
    <!-- Generator: sketchtool 51.2 (57519) - http://www.bohemiancoding.com/sketch -->
    <title>DDB8DD4F-B839-43B9-AB7E-25E3602A69FF</title>
    <desc>Created with sketchtool.</desc>
    <defs></defs>
    <g id="UI-desktop" stroke="none" stroke-width="1" fill="none" fill-rule="evenodd">
        <g id="Mood_dashboard_HR_thoughts_3" transform="translate(-1278.000000, -344.000000)" fill-rule="nonzero">
            <g id="reply" transform="translate(1278.000000, 344.000000)">
                <circle id="Oval-9" fill="#00AD3B" cx="5" cy="5" r="5"></circle>
                <path d="M7.88644623,3.73284814 C7.9622207,3.8048087 8,3.89360804 8,4.00003772 C8,4.10200584 7.9622207,4.19123694 7.88644623,4.26686749 L6.28791422,5.87540202 C6.17702299,5.98758854 6.08131544,6.02558372 6.00093549,5.99089872 C5.9206275,5.95794079 5.88068938,5.86360048 5.88068938,5.70938899 L5.88068938,4.63487383 C5.31248876,4.64005499 4.8114993,4.70143735 4.3797359,4.81952464 C3.94797251,4.93775585 3.58349225,5.09722046 3.28600727,5.29892593 C2.98830641,5.50091923 2.7552981,5.73867694 2.58583096,6.01219905 C2.41672364,6.28586508 2.31036592,6.57939223 2.26704566,6.89436363 C2.25833843,6.96632419 2.21768071,7.00194467 2.14600799,7.00194467 L2.13938762,7.00194467 C2.06857842,7.00194467 2.02777678,6.96632419 2.01914151,6.89436363 C2.00597273,6.78433592 2,6.67394841 2,6.56219366 C2,6.10941778 2.07699781,5.68161221 2.23264851,5.28187127 C2.38779549,4.88061916 2.62425791,4.53110669 2.94246753,4.23088721 C3.26060519,3.9321789 3.66308063,3.69427727 4.15075738,3.5190533 C4.63764257,3.34217423 5.21476631,3.25186372 5.88068938,3.24812177 L5.88068938,2.29442839 C5.88068938,2.13741044 5.91990789,2.04335798 5.99834491,2.01126356 C6.07599036,1.97823367 6.1729932,2.01802786 6.28791422,2.12827144 L7.88644623,3.73284814 Z" id="Shape" fill="#FFFFFF"></path>
            </g>
        </g>
    </g>
</svg>