<?xml version="1.0" encoding="UTF-8"?>
<svg width="50px" height="50px" viewBox="0 0 50 50" version="1.1" xmlns="http://www.w3.org/2000/svg" xmlns:xlink="http://www.w3.org/1999/xlink">
    <!-- Generator: sketchtool 51.1 (57501) - http://www.bohemiancoding.com/sketch -->
    <title>0B61E19A-CD46-4F61-AE4B-D3B0FD65F53B</title>
    <desc>Created with sketchtool.</desc>
    <defs>
        <polygon id="path-1" points="0 0.613988672 49.3864875 0.613988672 49.3864875 50 0 50"></polygon>
    </defs>
    <g id="UI" stroke="none" stroke-width="1" fill="none" fill-rule="evenodd">
        <g id="Mood_how_I_feel_1" transform="translate(-812.000000, -408.000000)">
            <g id="Group" transform="translate(512.000000, 238.000000)">
                <g id="terrible" transform="translate(255.000000, 150.000000)">
                    <g transform="translate(45.000000, 20.000000)">
                        <g id="Group-3-Copy">
                            <mask id="mask-2" fill="white">
                                <use xlink:href="#path-1"></use>
                            </mask>
                            <g id="Clip-2"></g>
                            <path d="M49.377619,25.9609524 C49.7395238,12.327619 38.98,0.983571429 25.3466667,0.622857143 C11.7133333,0.260952381 0.369285714,11.0204762 0.00857142857,24.652619 C-0.352142857,38.2859524 10.407381,49.63 24.0395238,49.9919048 C37.6728571,50.3514286 49.0169048,39.5930952 49.377619,25.9609524" id="Fill-1" fill="#FFD800" mask="url(#mask-2)"></path>
                        </g>
                        <path d="M11.4491566,18.7332882 C10.8161215,18.6131607 10.4003278,18.0026018 10.5204553,17.3695668 C10.6405828,16.7365317 11.2511417,16.320738 11.8841767,16.4408655 C13.3887283,16.7263757 14.4617742,16.498702 15.2160419,15.806884 C15.6908867,15.371354 16.4288913,15.403225 16.8644213,15.8780699 C17.2999513,16.3529147 17.2680803,17.0909193 16.7932355,17.5264493 C15.4473512,18.7609009 13.6284158,19.1468339 11.4491566,18.7332882 Z" id="Path-4" fill="#4A4A4A" fill-rule="nonzero"></path>
                        <path d="M33.1158233,18.7332882 C32.4827882,18.6131607 32.0669945,18.0026018 32.187122,17.3695668 C32.3072495,16.7365317 32.9178083,16.320738 33.5508434,16.4408655 C35.055395,16.7263757 36.1284409,16.498702 36.8827085,15.806884 C37.3575534,15.371354 38.095558,15.403225 38.531088,15.8780699 C38.966618,16.3529147 38.934747,17.0909193 38.4599021,17.5264493 C37.1140179,18.7609009 35.2950824,19.1468339 33.1158233,18.7332882 Z" id="Path-4-Copy" fill="#4A4A4A" fill-rule="nonzero" transform="translate(35.502217, 17.196439) scale(-1, 1) translate(-35.502217, -17.196439) "></path>
                        <path d="M38.1469955,40.7960685 C39.3033126,41.0308328 40.1002756,39.306139 39.3290543,38.1755636 C35.9538028,33.1981487 30.7127929,30 24.8179438,30 C18.9220651,30 13.6820848,33.1981487 10.3037443,38.1755636 C9.53664164,39.306139 10.329486,41.0308328 11.4899218,40.7960685 C15.4912114,39.9743935 20.0207208,39.5161913 24.8179438,39.5161913 C29.6161965,39.5161913 34.1446762,39.9743935 38.1469955,40.7960685" id="Fill-1" fill="#4A4A4A"></path>
                        <path d="M38.1743987,25.6665476 C38.7779866,25.8920374 39.0844956,26.5641376 38.8590058,27.1677255 C38.633516,27.7713134 37.9614158,28.0778225 37.3578279,27.8523327 L31.2583813,25.5736868 C30.1517031,25.1602513 30.2899541,23.5526569 31.4509707,23.3342401 L37.5504173,22.1867792 C38.1836417,22.0676536 38.7935418,22.484413 38.9126674,23.1176374 C39.031793,23.7508617 38.6150336,24.3607619 37.9818093,24.4798875 L35.997304,24.8532233 L38.1743987,25.6665476 Z" id="Path-5" fill="#4A4A4A" fill-rule="nonzero"></path>
                        <path d="M18.1743987,25.6665476 C18.7779866,25.8920374 19.0844956,26.5641376 18.8590058,27.1677255 C18.633516,27.7713134 17.9614158,28.0778225 17.3578279,27.8523327 L11.2583813,25.5736868 C10.1517031,25.1602513 10.2899541,23.5526569 11.4509707,23.3342401 L17.5504173,22.1867792 C18.1836417,22.0676536 18.7935418,22.484413 18.9126674,23.1176374 C19.031793,23.7508617 18.6150336,24.3607619 17.9818093,24.4798875 L15.997304,24.8532233 L18.1743987,25.6665476 Z" id="Path-5-Copy" fill="#4A4A4A" fill-rule="nonzero" transform="translate(14.716436, 25.046440) scale(-1, 1) translate(-14.716436, -25.046440) "></path>
                    </g>
                </g>
            </g>
        </g>
    </g>
</svg>