<?xml version="1.0" encoding="UTF-8"?>
<svg width="13px" height="15px" viewBox="0 0 13 15" version="1.1" xmlns="http://www.w3.org/2000/svg" xmlns:xlink="http://www.w3.org/1999/xlink">
    <!-- Generator: Sketch 51.2 (57519) - http://www.bohemiancoding.com/sketch -->
    <title>noun_Trash_50395</title>
    <desc>Created with Sketch.</desc>
    <defs></defs>
    <g id="UI-desktop" stroke="none" stroke-width="1" fill="none" fill-rule="evenodd">
        <g id="Mood_dashboard_HR_thoughts_1" transform="translate(-965.000000, -536.000000)" fill="#005FFF" fill-rule="nonzero">
            <g id="noun_Trash_50395" transform="translate(965.000000, 536.000000)">
                <g id="Group">
                    <path d="M1.13333333,13.9 C1.13333333,14.5166667 1.63333333,15 2.25,15 L9.76666667,15 C10.3833333,15 10.8833333,14.5166667 10.8833333,13.9 L11.3166667,4.83333333 L0.716666667,4.83333333 L1.13333333,13.9 Z M8,6.65 C8,6.33333333 8.18333333,6.08333333 8.5,6.08333333 C8.81666667,6.08333333 9,6.33333333 9,6.65 L9,12.9166667 C9,13.2333333 8.81666667,13.4833333 8.5,13.4833333 C8.18333333,13.4833333 8,13.2333333 8,12.9166667 L8,6.65 Z M5.5,6.65 C5.5,6.33333333 5.68333333,6.08333333 6,6.08333333 C6.31666667,6.08333333 6.5,6.33333333 6.5,6.65 L6.5,12.9166667 C6.5,13.2333333 6.31666667,13.4833333 6,13.4833333 C5.68333333,13.4833333 5.5,13.2333333 5.5,12.9166667 L5.5,6.65 Z M3,6.65 C3,6.33333333 3.18333333,6.08333333 3.5,6.08333333 C3.81666667,6.08333333 4,6.33333333 4,6.65 L4,12.9166667 C4,13.2333333 3.81666667,13.4833333 3.5,13.4833333 C3.18333333,13.4833333 3,13.2333333 3,12.9166667 L3,6.65 Z" id="Shape"></path>
                    <path d="M11.5166667,2 L8.5,2 L8.5,0.516666667 C8.5,0.216666667 8.35,0 8.03333333,0 L4,0 C3.68333333,0 3.5,0.216666667 3.5,0.516666667 L3.5,2 L0.516666667,2 C0.2,2 1.77635684e-15,2.23333333 1.77635684e-15,2.55 L1.77635684e-15,3.18333333 C1.77635684e-15,3.5 0.2,3.83333333 0.516666667,3.83333333 L11.5333333,3.83333333 C11.85,3.83333333 12.0166667,3.48333333 12.0166667,3.18333333 L12.0166667,2.55 C12,2.23333333 11.8333333,2 11.5166667,2 Z M7.5,2 L4.5,2 L4.5,1 L7.5,1 L7.5,2 Z" id="Shape"></path>
                </g>
            </g>
        </g>
    </g>
</svg>